<svg version="1.0" xmlns="http://www.w3.org/2000/svg" width="270.000000pt" height="270.000000pt" viewBox="0 0 270.000000 270.000000" preserveAspectRatio="xMidYMid meet"><g transform="translate(0.000000,270.000000) scale(0.100000,-0.100000)" fill="rgb(2,63,148)" stroke="none"><path d="M83 2671 c-22 -16 -50 -49 -62 -73 l-21 -44 0 -1197 c0 -1058 2 -1202 15 -1235 20 -47 50 -79 97 -103 37 -19 73 -19 1252 -17 l1214 3 39 31 c21 17 48 48 60 70 l23 39 0 1208 c0 1315 3 1233 -54 1295 -49 55 21 52 -1299 52 l-1224 0 -40 -29z m1565 -399 c226 -69 328 -188 348 -407 18 -201 -65 -354 -234 -432 l-77 -36 55 -14 c222 -57 340 -211 340 -446 -1 -260 -150 -446 -417 -519 -73 -20 -107 -21 -520 -25 l-443 -5 0 957 0 956 438 -3 c417 -4 440 -5 510 -26z"/><path d="M1047 2043 c-4 -3 -7 -130 -7 -281 l0 -274 193 4 c218 6 268 17 334 73 75 64 103 194 68 313 -31 103 -97 146 -248 162 -105 11 -330 13 -340 3z"/><path d="M1040 955 l0 -307 218 4 c247 5 297 16 363 75 51 46 77 97 87 170 17 128 -18 241 -91 294 -73 53 -121 62 -359 67 l-218 4 0 -307z"/></g></svg>
